HIERARCHY
ROOT Hips
{
	OFFSET -0.001795 -0.223333 0.028219
	CHANNELS 6 Xposition Yposition Zposition Zrotation Yrotation Xrotation 
	JOINT LeftUpLeg
	{
		OFFSET 0.069520 -0.091406 -0.006815
		CHANNELS 3 Zrotation Yrotation Xrotation
		JOINT LeftLeg
		{
			OFFSET 0.034277 -0.375199 -0.004496
			CHANNELS 3 Zrotation Yrotation Xrotation
			JOINT LeftFoot
			{
				OFFSET -0.013596 -0.397961 -0.043693
				CHANNELS 3 Zrotation Yrotation Xrotation
				JOINT LeftToe
				{
					OFFSET 0.026358 -0.055791 0.119288
					CHANNELS 3 Zrotation Yrotation Xrotation
					End Site
					{
						OFFSET 0.000000 0.000000 0.000000
					}
				}
			}
		}
	}
	JOINT RightUpLeg
	{
		OFFSET -0.067670 -0.090522 -0.004320
		CHANNELS 3 Zrotation Yrotation Xrotation
		JOINT RightLeg
		{
			OFFSET -0.038290 -0.382569 -0.008850
			CHANNELS 3 Zrotation Yrotation Xrotation
			JOINT RightFoot
			{
				OFFSET 0.015774 -0.398415 -0.042312
				CHANNELS 3 Zrotation Yrotation Xrotation
				JOINT RightToe
				{
					OFFSET -0.025372 -0.048144 0.123348
					CHANNELS 3 Zrotation Yrotation Xrotation
					End Site
					{
						OFFSET 0.000000 0.000000 0.000000
					}
				}
			}
		}
	}
	JOINT Spine
	{
		OFFSET -0.002533 0.108963 -0.026696
		CHANNELS 3 Zrotation Yrotation Xrotation
		JOINT Spine1
		{
			OFFSET 0.005487 0.135180 0.001092
			CHANNELS 3 Zrotation Yrotation Xrotation
			JOINT Spine2
			{
				OFFSET 0.001457 0.052922 0.025425
				CHANNELS 3 Zrotation Yrotation Xrotation
				JOINT Neck
				{
					OFFSET -0.002778 0.213870 -0.042857
					CHANNELS 3 Zrotation Yrotation Xrotation
					JOINT Head
					{
						OFFSET 0.005152 0.064970 0.051349
						CHANNELS 3 Zrotation Yrotation Xrotation
						End Site
						{
							OFFSET 0.000000 0.000000 0.000000
						}
					}
				}
				JOINT LeftShoulder
				{
					OFFSET 0.078845 0.121749 -0.034090
					CHANNELS 3 Zrotation Yrotation Xrotation
					JOINT LeftArm
					{
						OFFSET 0.090977 0.030469 -0.008868
						CHANNELS 3 Zrotation Yrotation Xrotation
						JOINT LeftForeArm
						{
							OFFSET 0.259612 -0.012772 -0.027456
							CHANNELS 3 Zrotation Yrotation Xrotation
							JOINT LeftHand
							{
								OFFSET 0.249234 0.008986 -0.001171
								CHANNELS 3 Zrotation Yrotation Xrotation
								End Site
								{
									OFFSET 0.000000 0.000000 0.000000
								}
							}
						}
					}
				}
				JOINT RightShoulder
				{
					OFFSET -0.081759 0.118833 -0.038615
					CHANNELS 3 Zrotation Yrotation Xrotation
					JOINT RightArm
					{
						OFFSET -0.096012 0.032551 -0.009143
						CHANNELS 3 Zrotation Yrotation Xrotation
						JOINT RightForeArm
						{
							OFFSET -0.253742 -0.013329 -0.021401
							CHANNELS 3 Zrotation Yrotation Xrotation
							JOINT RightHand
							{
								OFFSET -0.255298 0.007772 -0.005559
								CHANNELS 3 Zrotation Yrotation Xrotation
								End Site
								{
									OFFSET 0.000000 0.000000 0.000000
								}
							}
						}
					}
				}
			}
		}
	}
}
MOTION
Frames: 6
Frame Time: 0.050000
-0.351361 0.940180 1.174474 -0.223920 -25.288591 4.342432 -0.739999 0.012549 0.272881 0.388156 0.099838 -4.488771 4.604890 9.804097 6.066125 0.000000 0.000000 0.000000 -0.521966 0.257606 -2.811047 2.730341 -0.093112 0.565734 -3.892013 -10.784096 3.672538 0.000000 0.000000 0.000000 -1.627657 0.455621 -7.429054 0.366405 0.193601 4.379520 1.732385 -2.075365 5.389619 4.431736 -3.049250 -14.963840 0.000000 0.000000 0.000000 -30.680780 0.526330 2.807337 -47.195218 -6.650795 -4.916685 -6.289029 -41.148077 5.721742 0.000000 0.000000 0.000000 22.776777 10.148952 -1.574397 51.049034 -2.927072 -4.680443 14.483704 37.635329 4.156465 0.000000 0.000000 0.000000 
-0.350707 0.939994 1.173084 -0.246737 -25.111177 4.332656 -0.703683 0.002796 0.178613 0.363174 0.104488 -4.524192 4.671077 9.954409 5.897297 0.000000 0.000000 0.000000 -0.453577 0.267702 -2.972747 2.781629 -0.092624 0.781588 -4.037753 -10.996876 3.520262 0.000000 0.000000 0.000000 -1.724526 0.449423 -7.404764 0.353446 0.192180 4.339889 1.864884 -2.196050 5.392974 4.505060 -3.120067 -14.582390 0.000000 0.000000 0.000000 -30.683544 0.474386 2.873125 -47.084563 -6.656649 -4.920760 -6.239904 -43.909673 6.233676 0.000000 0.000000 0.000000 22.760145 10.255117 -1.534321 50.823223 -3.067405 -4.693670 17.051646 39.902508 5.228839 0.000000 0.000000 0.000000 
-0.350247 0.939998 1.171851 -0.233364 -25.024624 4.300075 -0.770423 0.007797 0.232842 0.448954 0.106013 -4.766684 4.667142 9.927787 6.201632 0.000000 0.000000 0.000000 -0.383056 0.276956 -3.121002 2.709466 -0.086325 0.960504 -4.135709 -11.275930 3.678323 0.000000 0.000000 0.000000 -1.844189 0.447682 -7.434558 0.459133 0.147401 4.474710 1.921450 -2.310938 5.218370 4.214685 -2.962620 -14.245100 0.000000 0.000000 0.000000 -30.862119 0.605183 2.811048 -46.957715 -6.684259 -4.911710 -6.584294 -46.948137 6.985564 0.000000 0.000000 0.000000 22.791092 10.280876 -1.554317 50.725376 -3.175309 -4.696387 19.875394 42.351832 6.526550 0.000000 0.000000 0.000000 
-0.349986 0.939816 1.170793 -0.227178 -24.936407 4.272269 -0.784040 -0.008694 0.086099 0.516036 0.095553 -4.699716 4.701271 9.998292 6.164623 0.000000 0.000000 0.000000 -0.299059 0.277311 -3.172934 2.668305 -0.085967 0.928049 -4.282384 -11.563447 3.676760 0.000000 0.000000 0.000000 -1.964227 0.455106 -7.603962 0.412787 0.179336 4.627297 2.088585 -2.416395 5.216398 4.247707 -3.010027 -13.819751 0.000000 0.000000 0.000000 -30.783520 0.741214 2.731442 -47.050825 -6.613586 -4.940923 -7.083564 -50.508259 7.985632 0.000000 0.000000 0.000000 22.910681 10.321067 -1.583063 50.630731 -3.380009 -4.746065 23.206455 45.171822 8.242920 0.000000 0.000000 0.000000 
-0.349803 0.939749 1.169844 -0.237047 -25.023960 4.206031 -0.867662 -0.002892 0.150352 0.595210 0.089370 -4.756948 4.759904 10.104228 6.262623 0.000000 0.000000 0.000000 -0.203400 0.270668 -3.152939 2.596964 -0.082784 0.893120 -4.300953 -11.590022 3.664841 0.000000 0.000000 0.000000 -2.013595 0.450886 -7.561195 0.381448 0.214213 4.844287 2.133246 -2.339443 4.995254 4.114839 -2.925893 -13.622246 0.000000 0.000000 0.000000 -30.993906 1.015863 2.507928 -46.942109 -6.299729 -5.035462 -7.955238 -54.697629 9.352106 0.000000 0.000000 0.000000 23.007499 10.333617 -1.581103 50.647775 -3.476474 -4.764997 26.617994 47.799602 10.174438 0.000000 0.000000 0.000000 
-0.349647 0.939664 1.168924 -0.235210 -24.941174 4.177244 -0.863986 -0.016188 0.029744 0.601855 0.084799 -4.674903 4.726092 10.038187 6.251519 0.000000 0.000000 0.000000 -0.058375 0.265895 -3.178487 2.512217 -0.078057 0.949182 -4.420262 -11.750715 3.523226 0.000000 0.000000 0.000000 -2.028439 0.457759 -7.680496 0.298487 0.259014 4.909921 2.063857 -2.217793 4.977549 4.262709 -3.010509 -13.448205 0.000000 0.000000 0.000000 -30.973195 0.928010 2.497880 -47.020953 -6.207898 -5.054829 -8.830827 -58.966601 10.852799 0.000000 0.000000 0.000000 23.347426 10.507444 -1.496579 50.496679 -3.686282 -4.805262 30.671495 50.439226 12.668579 0.000000 0.000000 0.000000 
